<svg width="360" height="800" viewBox="0 0 360 800" fill="none" xmlns="http://www.w3.org/2000/svg">
<g clip-path="url(#clip0_14_378)">
<rect width="360" height="800" fill="#271033"/>
<g filter="url(#filter0_d_14_378)">
<path d="M465.871 245.008C461.538 177.342 435.271 36.0085 364.871 12.0085C294.471 -11.9915 227.95 77.8208 265.871 121.009C301.871 162.009 334.671 227.408 265.871 297.008C179.871 384.008 342.871 410.009 342.871 448.009C342.871 493.008 257.538 500.008 221.871 493.008C190.204 491.342 123.071 488.808 55.8711 564.008C-11.3289 639.208 39.8711 696.008 73.8711 715.008C149.5 757.272 208.7 819.3 253.5 820.5" stroke="#CE2D4F" stroke-width="3" stroke-linecap="round"/>
</g>
<g filter="url(#filter1_d_14_378)">
<path d="M463.871 296.008C459.538 228.342 433.271 87.0085 362.871 63.0085C292.471 39.0085 225.95 128.821 263.871 172.009C299.871 213.009 332.671 278.408 263.871 348.008C177.871 435.008 340.871 461.009 340.871 499.009C340.871 544.008 255.538 551.008 219.871 544.008C188.204 542.342 121.071 539.808 53.8711 615.008C-13.3289 690.208 37.8711 747.008 71.8711 766.008C100.914 781.339 157.1 813 149.5 817" stroke="#CE2D4F" stroke-opacity="0.7" stroke-width="3" stroke-linecap="round" shape-rendering="crispEdges"/>
</g>
</g>
<defs>
<filter id="filter0_d_14_378" x="17.499" y="6.49683" width="453.872" height="823.503" filterUnits="userSpaceOnUse" color-interpolation-filters="sRGB">
<feFlood flood-opacity="0" result="BackgroundImageFix"/>
<feColorMatrix in="SourceAlpha" type="matrix" values="0 0 0 0 0 0 0 0 0 0 0 0 0 0 0 0 0 0 127 0" result="hardAlpha"/>
<feOffset dy="4"/>
<feGaussianBlur stdDeviation="2"/>
<feComposite in2="hardAlpha" operator="out"/>
<feColorMatrix type="matrix" values="0 0 0 0 0 0 0 0 0 0 0 0 0 0 0 0 0 0 0.25 0"/>
<feBlend mode="normal" in2="BackgroundImageFix" result="effect1_dropShadow_14_378"/>
<feBlend mode="normal" in="SourceGraphic" in2="effect1_dropShadow_14_378" result="shape"/>
</filter>
<filter id="filter1_d_14_378" x="15.499" y="57.4968" width="453.872" height="769.003" filterUnits="userSpaceOnUse" color-interpolation-filters="sRGB">
<feFlood flood-opacity="0" result="BackgroundImageFix"/>
<feColorMatrix in="SourceAlpha" type="matrix" values="0 0 0 0 0 0 0 0 0 0 0 0 0 0 0 0 0 0 127 0" result="hardAlpha"/>
<feOffset dy="4"/>
<feGaussianBlur stdDeviation="2"/>
<feComposite in2="hardAlpha" operator="out"/>
<feColorMatrix type="matrix" values="0 0 0 0 0 0 0 0 0 0 0 0 0 0 0 0 0 0 0.25 0"/>
<feBlend mode="normal" in2="BackgroundImageFix" result="effect1_dropShadow_14_378"/>
<feBlend mode="normal" in="SourceGraphic" in2="effect1_dropShadow_14_378" result="shape"/>
</filter>
<clipPath id="clip0_14_378">
<rect width="360" height="800" fill="white"/>
</clipPath>
</defs>
</svg>
