<svg width="118" height="19" viewBox="0 0 118 19" fill="none" xmlns="http://www.w3.org/2000/svg">
<path d="M15.4297 6H14.8501C14.8445 5.42045 14.7337 4.82955 14.5178 4.22727C14.3075 3.625 13.9865 3.06818 13.5547 2.55682C13.1286 2.04545 12.5859 1.63352 11.9268 1.32102C11.2734 1.00852 10.4979 0.852272 9.60014 0.852272C8.41264 0.852272 7.25923 1.17898 6.13992 1.83239C5.0206 2.48011 4.04901 3.43182 3.22514 4.6875C2.40696 5.9375 1.85014 7.46591 1.55469 9.27273C1.24787 11.1023 1.29901 12.642 1.7081 13.892C2.11719 15.142 2.77628 16.0881 3.68537 16.7301C4.59446 17.3722 5.6456 17.6932 6.83878 17.6932C7.72514 17.6932 8.54616 17.5398 9.30185 17.233C10.0632 16.9205 10.7422 16.5114 11.3388 16.0057C11.9354 15.4943 12.4411 14.9375 12.8558 14.3352C13.2763 13.7273 13.5888 13.1307 13.7933 12.5455H14.3729C14.1626 13.1591 13.8388 13.7983 13.4013 14.4631C12.9638 15.1222 12.4212 15.7386 11.7734 16.3125C11.1314 16.8864 10.3871 17.3523 9.54048 17.7102C8.69957 18.0625 7.76491 18.2386 6.73651 18.2386C5.30469 18.2386 4.10866 17.8636 3.14844 17.1136C2.18821 16.3636 1.51491 15.3153 1.12855 13.9688C0.747869 12.6222 0.708097 11.0568 1.00923 9.27273C1.29901 7.48864 1.85866 5.9233 2.68821 4.5767C3.51776 3.23011 4.5348 2.18182 5.73935 1.43182C6.94957 0.681818 8.2706 0.306818 9.70242 0.306818C10.7308 0.306818 11.6087 0.482954 12.3359 0.835227C13.0632 1.1875 13.6541 1.65057 14.1087 2.22443C14.5632 2.79261 14.8956 3.40909 15.1058 4.07386C15.3217 4.73295 15.4297 5.375 15.4297 6ZM17.5007 18L19.6825 4.90909H20.228L19.8871 6.98864H19.9553C20.3643 6.30682 20.9553 5.76136 21.728 5.35227C22.5064 4.94318 23.3473 4.73864 24.2507 4.73864C24.3189 4.73864 24.3643 4.73864 24.3871 4.73864C24.4098 4.73864 24.4553 4.73864 24.5234 4.73864L24.4212 5.28409C24.353 5.28409 24.3075 5.28409 24.2848 5.28409C24.2621 5.28409 24.2166 5.28409 24.1484 5.28409C23.3757 5.28409 22.6598 5.4517 22.0007 5.78693C21.3473 6.12216 20.799 6.58523 20.3558 7.17614C19.9183 7.76705 19.6371 8.44318 19.5121 9.20455L18.0462 18H17.5007ZM25.3736 18L27.5554 4.90909H28.1009L25.919 18H25.3736ZM28.2543 2.52273C28.0838 2.52273 27.9474 2.46307 27.8452 2.34375C27.7486 2.22443 27.7145 2.07954 27.7429 1.90909C27.7656 1.78977 27.8338 1.68182 27.9474 1.58523C28.0611 1.48295 28.1861 1.43182 28.3224 1.43182C28.4929 1.43182 28.6264 1.49148 28.723 1.61079C28.8253 1.73011 28.8622 1.875 28.8338 2.04545C28.8111 2.17045 28.7429 2.28125 28.6293 2.37784C28.5156 2.47443 28.3906 2.52273 28.2543 2.52273ZM33.8643 18.2727C33.1484 18.2727 32.5121 18.125 31.9553 17.8295C31.4041 17.5341 30.9893 17.1023 30.7109 16.5341C30.4382 15.9659 30.3643 15.2727 30.4893 14.4545C30.5689 14.0114 30.7109 13.5966 30.9155 13.2102C31.1257 12.8182 31.4354 12.4631 31.8445 12.1449C32.2592 11.8267 32.8075 11.554 33.4893 11.3267C34.1712 11.0994 35.0234 10.9261 36.0462 10.8068C36.6598 10.7386 37.2422 10.6591 37.7933 10.5682C38.3445 10.4773 38.8018 10.3409 39.1655 10.1591C39.5291 9.97727 39.7393 9.71591 39.7962 9.375L39.9325 8.59091C40.103 7.58523 39.9155 6.77841 39.37 6.17045C38.8246 5.55682 37.9893 5.25 36.8643 5.25C35.9439 5.25 35.0888 5.45739 34.299 5.87216C33.5149 6.28693 32.9268 6.85227 32.5348 7.56818L32.0575 7.36364C32.353 6.81818 32.745 6.34659 33.2337 5.94886C33.728 5.55114 34.2848 5.24432 34.9041 5.02841C35.5291 4.8125 36.1825 4.70454 36.8643 4.70454C37.5291 4.70454 38.1087 4.80398 38.603 5.00284C39.0973 5.19602 39.4979 5.46875 39.8047 5.82102C40.1172 6.16761 40.3303 6.5767 40.4439 7.0483C40.5632 7.51989 40.5746 8.03409 40.478 8.59091L38.9098 18H38.3643L38.8075 15.3409H38.7393C38.3757 15.9318 37.9382 16.4489 37.4268 16.892C36.9212 17.3295 36.3643 17.6705 35.7564 17.9148C35.1541 18.1534 34.5234 18.2727 33.8643 18.2727ZM33.8643 17.7273C34.6939 17.7273 35.4893 17.5057 36.2507 17.0625C37.0178 16.6136 37.6712 15.9915 38.2109 15.196C38.7564 14.3949 39.1143 13.4659 39.2848 12.4091L39.6257 10.4318C39.4496 10.5511 39.2393 10.6562 38.995 10.7472C38.7564 10.8381 38.4893 10.9205 38.1939 10.9943C37.9041 11.0625 37.5888 11.1222 37.2479 11.1733C36.9126 11.2244 36.5575 11.2727 36.1825 11.3182C34.9893 11.4545 34.0348 11.6619 33.3189 11.9403C32.603 12.2187 32.0689 12.5682 31.7166 12.9886C31.3643 13.4091 31.1371 13.8977 31.0348 14.4545C30.8814 15.4432 31.0717 16.2358 31.6058 16.8324C32.1399 17.429 32.8928 17.7273 33.8643 17.7273ZM43.6101 18L45.7919 4.90909H46.3374L45.9964 6.98864H46.0646C46.4737 6.30682 47.0646 5.76136 47.8374 5.35227C48.6158 4.94318 49.4567 4.73864 50.3601 4.73864C50.4283 4.73864 50.4737 4.73864 50.4964 4.73864C50.5192 4.73864 50.5646 4.73864 50.6328 4.73864L50.5305 5.28409C50.4624 5.28409 50.4169 5.28409 50.3942 5.28409C50.3714 5.28409 50.326 5.28409 50.2578 5.28409C49.4851 5.28409 48.7692 5.4517 48.1101 5.78693C47.4567 6.12216 46.9084 6.58523 46.4652 7.17614C46.0277 7.76705 45.7464 8.44318 45.6214 9.20455L44.1555 18H43.6101ZM62.8352 18.2727C61.7557 18.2727 60.8523 17.9744 60.125 17.3778C59.4034 16.7812 58.8949 15.9716 58.5994 14.9489C58.304 13.9205 58.2614 12.767 58.4716 11.4886C58.6818 10.1989 59.108 9.04261 59.75 8.01989C60.392 6.99716 61.1761 6.19034 62.1023 5.59943C63.0341 5.00284 64.0284 4.70454 65.0852 4.70454C65.8807 4.70454 66.5767 4.875 67.1733 5.21591C67.7699 5.55114 68.2358 6.02273 68.571 6.63068C68.9062 7.23295 69.0739 7.93182 69.0739 8.72727H68.4943C68.4943 7.65909 68.1818 6.8125 67.5568 6.1875C66.9375 5.5625 66.1136 5.25 65.0852 5.25C64.125 5.25 63.2188 5.52273 62.3665 6.06818C61.5199 6.60795 60.7983 7.34659 60.2017 8.28409C59.6108 9.22159 59.2159 10.2898 59.017 11.4886C58.8239 12.6477 58.8494 13.6989 59.0938 14.642C59.3438 15.5852 59.7869 16.3352 60.4233 16.892C61.0597 17.4489 61.8636 17.7273 62.8352 17.7273C63.5455 17.7273 64.2244 17.5795 64.8722 17.2841C65.5199 16.9886 66.0881 16.5739 66.5767 16.0398C67.0653 15.5057 67.4205 14.8864 67.642 14.1818H68.2216C67.9545 15.017 67.5483 15.7415 67.0028 16.3551C66.4574 16.9631 65.8239 17.4347 65.1023 17.7699C64.3864 18.1051 63.6307 18.2727 62.8352 18.2727ZM76.0668 18.2727C75.0327 18.2727 74.152 17.9744 73.4247 17.3778C72.7031 16.7812 72.1861 15.9659 71.8736 14.9318C71.5668 13.8977 71.5213 12.7273 71.7372 11.4205C71.9531 10.1477 72.3793 9.00568 73.0156 7.99432C73.6577 6.97727 74.4304 6.17614 75.3338 5.59091C76.2429 5 77.2031 4.70454 78.2145 4.70454C79.2599 4.70454 80.1435 5.00568 80.8651 5.60795C81.5923 6.21023 82.1094 7.02841 82.4162 8.0625C82.7287 9.09659 82.7827 10.2614 82.5781 11.5568C82.3622 12.8295 81.9332 13.9744 81.2912 14.9915C80.6491 16.0028 79.8736 16.804 78.9645 17.3949C78.0554 17.9801 77.0895 18.2727 76.0668 18.2727ZM76.0668 17.7273C77.0099 17.7273 77.8991 17.4545 78.7344 16.9091C79.5696 16.358 80.2798 15.608 80.8651 14.6591C81.4503 13.7045 81.8395 12.625 82.0327 11.4205C82.2259 10.25 82.1889 9.19886 81.9219 8.26705C81.6548 7.33523 81.2031 6.59943 80.5668 6.05966C79.9304 5.51989 79.1577 5.25 78.2486 5.25C77.3168 5.25 76.4332 5.52841 75.598 6.08523C74.7628 6.63636 74.0497 7.3892 73.4588 8.34375C72.8679 9.29261 72.4759 10.3636 72.2827 11.5568C72.0781 12.7273 72.1094 13.7784 72.3764 14.7102C72.6491 15.642 73.1037 16.3778 73.7401 16.9176C74.3821 17.4574 75.1577 17.7273 76.0668 17.7273ZM87.3402 9.20455L85.8743 18H85.3288L87.5107 4.90909H88.0561L87.7152 6.98864H87.7834C88.1925 6.30682 88.7834 5.76136 89.5561 5.35227C90.3345 4.94318 91.1754 4.73864 92.0788 4.73864C92.9538 4.73864 93.6953 4.92898 94.3033 5.30966C94.9112 5.69034 95.3487 6.21591 95.6158 6.88636C95.8828 7.55682 95.9425 8.32955 95.7947 9.20455L94.3288 18H93.7834L95.2493 9.20455C95.4368 8.04545 95.2379 7.10227 94.6527 6.375C94.0732 5.64773 93.2038 5.28409 92.0447 5.28409C91.272 5.28409 90.5504 5.4517 89.88 5.78693C89.2152 6.12216 88.6555 6.58523 88.201 7.17614C87.7521 7.76705 87.4652 8.44318 87.3402 9.20455ZM105.242 4.90909L105.14 5.45454H99.9581L100.06 4.90909H105.242ZM102.481 1.77273H103.026L100.81 15.2386C100.719 15.75 100.756 16.1903 100.921 16.5597C101.086 16.9233 101.339 17.2045 101.68 17.4034C102.021 17.5966 102.413 17.6932 102.856 17.6932C103.009 17.6932 103.157 17.679 103.299 17.6506C103.447 17.6165 103.606 17.5739 103.776 17.5227L103.844 18.0341C103.657 18.1023 103.478 18.1534 103.308 18.1875C103.143 18.2216 102.958 18.2386 102.754 18.2386C102.219 18.2386 101.745 18.1165 101.33 17.8722C100.921 17.6278 100.614 17.2812 100.41 16.8324C100.211 16.3835 100.163 15.8523 100.265 15.2386L102.481 1.77273ZM110.552 18.2727C109.836 18.2727 109.2 18.125 108.643 17.8295C108.092 17.5341 107.677 17.1023 107.398 16.5341C107.126 15.9659 107.052 15.2727 107.177 14.4545C107.256 14.0114 107.398 13.5966 107.603 13.2102C107.813 12.8182 108.123 12.4631 108.532 12.1449C108.947 11.8267 109.495 11.554 110.177 11.3267C110.859 11.0994 111.711 10.9261 112.734 10.8068C113.347 10.7386 113.93 10.6591 114.481 10.5682C115.032 10.4773 115.489 10.3409 115.853 10.1591C116.217 9.97727 116.427 9.71591 116.484 9.375L116.62 8.59091C116.79 7.58523 116.603 6.77841 116.058 6.17045C115.512 5.55682 114.677 5.25 113.552 5.25C112.631 5.25 111.776 5.45739 110.987 5.87216C110.202 6.28693 109.614 6.85227 109.222 7.56818L108.745 7.36364C109.04 6.81818 109.433 6.34659 109.921 5.94886C110.415 5.55114 110.972 5.24432 111.592 5.02841C112.217 4.8125 112.87 4.70454 113.552 4.70454C114.217 4.70454 114.796 4.80398 115.29 5.00284C115.785 5.19602 116.185 5.46875 116.492 5.82102C116.805 6.16761 117.018 6.5767 117.131 7.0483C117.251 7.51989 117.262 8.03409 117.165 8.59091L115.597 18H115.052L115.495 15.3409H115.427C115.063 15.9318 114.626 16.4489 114.114 16.892C113.609 17.3295 113.052 17.6705 112.444 17.9148C111.842 18.1534 111.211 18.2727 110.552 18.2727ZM110.552 17.7273C111.381 17.7273 112.177 17.5057 112.938 17.0625C113.705 16.6136 114.359 15.9915 114.898 15.196C115.444 14.3949 115.802 13.4659 115.972 12.4091L116.313 10.4318C116.137 10.5511 115.927 10.6562 115.683 10.7472C115.444 10.8381 115.177 10.9205 114.881 10.9943C114.592 11.0625 114.276 11.1222 113.935 11.1733C113.6 11.2244 113.245 11.2727 112.87 11.3182C111.677 11.4545 110.722 11.6619 110.006 11.9403C109.29 12.2187 108.756 12.5682 108.404 12.9886C108.052 13.4091 107.825 13.8977 107.722 14.4545C107.569 15.4432 107.759 16.2358 108.293 16.8324C108.827 17.429 109.58 17.7273 110.552 17.7273Z" fill="white"/>
</svg>
