<svg width="257" height="72" viewBox="0 0 257 72" fill="none" xmlns="http://www.w3.org/2000/svg">
<path d="M0.74858 71L12.3395 1.18182H14.5213L3.33949 68.8182H38.2486L37.8395 71H0.74858ZM111.621 36.0909C110.462 43.2045 108.223 49.4545 104.905 54.8409C101.587 60.2273 97.5071 64.4318 92.6662 67.4545C87.848 70.4545 82.5753 71.9545 76.848 71.9545C71.0071 71.9545 66.1662 70.4432 62.3253 67.4205C58.5071 64.3977 55.848 60.1932 54.348 54.8068C52.848 49.4205 52.6662 43.1818 53.8026 36.0909C55.0071 28.9773 57.2685 22.7273 60.5866 17.3409C63.9276 11.9545 68.0185 7.76136 72.8594 4.76136C77.7003 1.73863 82.9844 0.22727 88.7116 0.22727C94.4162 0.22727 99.1889 1.72727 103.03 4.72727C106.893 7.72727 109.598 11.9205 111.143 17.3068C112.689 22.6705 112.848 28.9318 111.621 36.0909ZM109.439 36.0909C110.575 29.3182 110.473 23.4091 109.132 18.3636C107.791 13.3182 105.382 9.39773 101.905 6.60227C98.4503 3.80681 94.098 2.40909 88.848 2.40909C83.5071 2.40909 78.5639 3.81818 74.0185 6.63636C69.473 9.45454 65.6207 13.3977 62.4616 18.4659C59.3253 23.5114 57.1662 29.3864 55.9844 36.0909C54.8707 42.8409 54.973 48.7386 56.2912 53.7841C57.6094 58.8295 60.0071 62.7614 63.4844 65.5795C66.9844 68.375 71.3935 69.7727 76.7116 69.7727C82.1207 69.7727 87.098 68.3523 91.6435 65.5114C96.2117 62.6705 100.053 58.7273 103.166 53.6818C106.303 48.6136 108.393 42.75 109.439 36.0909ZM181.021 23C181.021 20.5455 180.612 18.1023 179.794 15.6705C178.999 13.2386 177.749 11.0227 176.044 9.02272C174.339 7.02272 172.146 5.42045 169.464 4.21591C166.805 3.01136 163.612 2.40909 159.885 2.40909C155.158 2.40909 150.555 3.71591 146.078 6.32955C141.624 8.94318 137.749 12.7614 134.453 17.7841C131.18 22.7841 128.93 28.8864 127.703 36.0909C126.567 42.8636 126.658 48.7727 127.976 53.8182C129.294 58.8636 131.737 62.7841 135.305 65.5795C138.896 68.375 143.499 69.7727 149.112 69.7727C153.908 69.7727 158.374 68.6023 162.51 66.2614C166.669 63.9205 170.18 60.5795 173.044 56.2386C175.908 51.8977 177.794 46.7273 178.703 40.7273L179.521 41.5455H154.43L154.839 39.3636H181.158L180.749 41.5455C179.703 47.9091 177.635 53.3636 174.544 57.9091C171.476 62.4318 167.703 65.9091 163.226 68.3409C158.771 70.75 153.93 71.9545 148.703 71.9545C142.794 71.9545 137.896 70.4545 134.01 67.4545C130.146 64.4545 127.464 60.2614 125.964 54.875C124.464 49.4886 124.317 43.2273 125.521 36.0909C126.385 30.7273 127.874 25.8523 129.987 21.4659C132.101 17.0795 134.692 13.3068 137.76 10.1477C140.851 6.96591 144.305 4.52273 148.124 2.81818C151.942 1.09091 155.999 0.22727 160.294 0.22727C164.43 0.22727 167.953 0.931816 170.862 2.34091C173.771 3.75 176.135 5.60227 177.953 7.89772C179.794 10.1705 181.135 12.6364 181.976 15.2955C182.817 17.9318 183.226 20.5 183.203 23H181.021ZM254.214 36.0909C253.055 43.2045 250.817 49.4545 247.499 54.8409C244.18 60.2273 240.101 64.4318 235.26 67.4545C230.442 70.4545 225.169 71.9545 219.442 71.9545C213.601 71.9545 208.76 70.4432 204.919 67.4205C201.101 64.3977 198.442 60.1932 196.942 54.8068C195.442 49.4205 195.26 43.1818 196.396 36.0909C197.601 28.9773 199.862 22.7273 203.18 17.3409C206.521 11.9545 210.612 7.76136 215.453 4.76136C220.294 1.73863 225.578 0.22727 231.305 0.22727C237.01 0.22727 241.783 1.72727 245.624 4.72727C249.487 7.72727 252.192 11.9205 253.737 17.3068C255.283 22.6705 255.442 28.9318 254.214 36.0909ZM252.033 36.0909C253.169 29.3182 253.067 23.4091 251.726 18.3636C250.385 13.3182 247.976 9.39773 244.499 6.60227C241.044 3.80681 236.692 2.40909 231.442 2.40909C226.101 2.40909 221.158 3.81818 216.612 6.63636C212.067 9.45454 208.214 13.3977 205.055 18.4659C201.919 23.5114 199.76 29.3864 198.578 36.0909C197.464 42.8409 197.567 48.7386 198.885 53.7841C200.203 58.8295 202.601 62.7614 206.078 65.5795C209.578 68.375 213.987 69.7727 219.305 69.7727C224.714 69.7727 229.692 68.3523 234.237 65.5114C238.805 62.6705 242.646 58.7273 245.76 53.6818C248.896 48.6136 250.987 42.75 252.033 36.0909Z" fill="white"/>
</svg>
