<svg width="209" height="20" viewBox="0 0 209 20" fill="none" xmlns="http://www.w3.org/2000/svg">
<path d="M0.676136 15L3.09091 0.454545H7.35227C8.16667 0.454545 8.85795 0.636837 9.42614 1.00142C9.99432 1.36127 10.4039 1.86316 10.6548 2.5071C10.9058 3.14631 10.9602 3.88258 10.8182 4.71591C10.6856 5.53977 10.3873 6.27131 9.9233 6.91051C9.45928 7.54498 8.88163 8.04451 8.19034 8.40909C7.49905 8.76894 6.74621 8.94886 5.93182 8.94886H1.89773L1.98295 8.49432H6.01705C6.74621 8.49432 7.41619 8.33333 8.02699 8.01136C8.64252 7.68939 9.15388 7.24432 9.56108 6.67614C9.97301 6.10795 10.2405 5.45455 10.3636 4.71591C10.4867 3.9678 10.437 3.30729 10.2145 2.73438C9.99195 2.16146 9.62737 1.71402 9.12074 1.39205C8.61411 1.07008 7.99621 0.90909 7.26705 0.90909H3.46023L1.13068 15H0.676136ZM12.4641 15L14.2823 4.09091H14.7369L14.4528 5.82386H14.5096C14.8505 5.25568 15.3429 4.80114 15.9869 4.46023C16.6355 4.11932 17.3363 3.94886 18.0891 3.94886C18.146 3.94886 18.1838 3.94886 18.2028 3.94886C18.2217 3.94886 18.2596 3.94886 18.3164 3.94886L18.2312 4.40341C18.1744 4.40341 18.1365 4.40341 18.1175 4.40341C18.0986 4.40341 18.0607 4.40341 18.0039 4.40341C17.36 4.40341 16.7634 4.54309 16.2141 4.82244C15.6696 5.1018 15.2127 5.48769 14.8434 5.98011C14.4788 6.47254 14.2444 7.03598 14.1403 7.67045L12.9187 15H12.4641ZM22.4996 15.2273C21.6379 15.2273 20.904 14.9787 20.2979 14.4815C19.6966 13.9844 19.2657 13.3049 19.0053 12.4432C18.7496 11.5814 18.7118 10.6061 18.8917 9.51705C19.0716 8.45644 19.4267 7.50473 19.957 6.66193C20.4921 5.81439 21.136 5.14678 21.8888 4.65909C22.6464 4.16667 23.4466 3.92045 24.2894 3.92045C25.1606 3.92045 25.8969 4.1714 26.4982 4.6733C27.1043 5.17519 27.5352 5.85701 27.7908 6.71875C28.0513 7.58049 28.0962 8.55114 27.9258 9.63068C27.7459 10.6913 27.3884 11.6454 26.8533 12.4929C26.3183 13.3357 25.672 14.0033 24.9144 14.4957C24.1568 14.9834 23.3519 15.2273 22.4996 15.2273ZM22.4996 14.7727C23.2856 14.7727 24.0266 14.5455 24.7227 14.0909C25.4187 13.6316 26.0105 13.0066 26.4982 12.2159C26.9859 11.4205 27.3103 10.5208 27.4712 9.51705C27.6322 8.54167 27.6014 7.66572 27.3789 6.8892C27.1564 6.11269 26.7799 5.49953 26.2496 5.04972C25.7193 4.59991 25.0754 4.375 24.3178 4.375C23.5413 4.375 22.805 4.60701 22.109 5.07102C21.413 5.5303 20.8188 6.15767 20.3263 6.95312C19.8339 7.74384 19.5072 8.63636 19.3462 9.63068C19.1758 10.6061 19.2018 11.482 19.4244 12.2585C19.6516 13.035 20.0304 13.6482 20.5607 14.098C21.0958 14.5478 21.7421 14.7727 22.4996 14.7727ZM30.5589 15L32.9737 0.454545H33.4283L32.3771 6.875H32.4339C32.718 6.26894 33.0755 5.74574 33.5064 5.3054C33.9373 4.86032 34.4179 4.51941 34.9482 4.28267C35.4785 4.04119 36.0324 3.92045 36.6101 3.92045C37.4624 3.92045 38.1631 4.16903 38.7124 4.66619C39.2616 5.16335 39.638 5.83807 39.8416 6.69034C40.0452 7.54261 40.0571 8.50379 39.8771 9.57386C39.6972 10.6439 39.3658 11.6051 38.8828 12.4574C38.3999 13.3097 37.8033 13.9844 37.093 14.4815C36.3828 14.9787 35.5968 15.2273 34.7351 15.2273C34.148 15.2273 33.6295 15.1089 33.1797 14.8722C32.7346 14.6307 32.37 14.2898 32.0859 13.8494C31.8066 13.4044 31.6196 12.8788 31.5249 12.2727H31.468L31.0135 15H30.5589ZM31.9226 9.57386C31.7616 10.5587 31.7592 11.4441 31.9155 12.2301C32.0765 13.0114 32.3913 13.6316 32.8601 14.0909C33.3336 14.5455 33.9586 14.7727 34.7351 14.7727C35.5021 14.7727 36.21 14.5455 36.8587 14.0909C37.5121 13.6316 38.0613 13.0114 38.5064 12.2301C38.9562 11.4441 39.2616 10.5587 39.4226 9.57386C39.5836 8.58902 39.5812 7.70597 39.4155 6.92472C39.2545 6.13873 38.9373 5.51847 38.4638 5.06392C37.995 4.60464 37.3771 4.375 36.6101 4.375C35.843 4.375 35.1328 4.60464 34.4794 5.06392C33.8307 5.51847 33.2815 6.13873 32.8317 6.92472C32.3866 7.70597 32.0836 8.58902 31.9226 9.57386ZM45.0405 0.454545L42.6257 15H42.1712L44.5859 0.454545H45.0405ZM50.5501 15.2273C49.5936 15.2273 48.8005 14.9787 48.1708 14.4815C47.5411 13.9844 47.1007 13.3097 46.8498 12.4574C46.5988 11.6051 46.5633 10.6439 46.7433 9.57386C46.9232 8.50379 47.2807 7.54261 47.8157 6.69034C48.3507 5.83807 48.9994 5.16335 49.7617 4.66619C50.524 4.16903 51.3361 3.92045 52.1978 3.92045C52.8323 3.92045 53.3957 4.05776 53.8881 4.33239C54.3853 4.60227 54.7949 4.97633 55.1168 5.45455C55.4435 5.92803 55.6684 6.47727 55.7915 7.10227C55.9147 7.72254 55.9194 8.38542 55.8058 9.09091L55.7205 9.54545H46.9705L47.0558 9.09091H55.3512C55.4933 8.2197 55.4483 7.42898 55.2163 6.71875C54.989 6.00379 54.6126 5.43561 54.087 5.0142C53.5662 4.58807 52.9364 4.375 52.1978 4.375C51.4497 4.375 50.73 4.59754 50.0387 5.04261C49.3474 5.48769 48.7508 6.09375 48.2489 6.8608C47.747 7.62784 47.4061 8.49432 47.2262 9.46023L47.1978 9.48864C47.0368 10.4451 47.0534 11.3234 47.2475 12.1236C47.4416 12.9238 47.8157 13.5653 48.3697 14.0483C48.9237 14.5312 49.6599 14.7727 50.5785 14.7727C51.2414 14.7727 51.8237 14.6544 52.3256 14.4176C52.8323 14.1809 53.2537 13.9086 53.5898 13.6009C53.9308 13.2931 54.1864 13.0303 54.3569 12.8125L54.6694 13.0682C54.4705 13.3428 54.1841 13.6482 53.81 13.9844C53.436 14.3205 52.9767 14.6117 52.4322 14.858C51.8877 15.1042 51.2603 15.2273 50.5501 15.2273ZM58.0305 15L59.8487 4.09091H60.3033L60.0192 5.71023H60.076C60.3743 5.18466 60.8075 4.76089 61.3757 4.43892C61.9439 4.11222 62.5902 3.94886 63.3146 3.94886C64.1385 3.94886 64.7588 4.15246 65.1754 4.55966C65.5921 4.96686 65.843 5.51136 65.9283 6.19318H65.9851C66.2692 5.51136 66.7214 4.96686 67.3416 4.55966C67.9619 4.15246 68.6839 3.94886 69.5078 3.94886C70.6016 3.94886 71.352 4.29688 71.7592 4.9929C72.1664 5.68419 72.2777 6.5767 72.093 7.67045L70.8714 15H70.4169L71.6385 7.67045C71.7947 6.70455 71.7143 5.91856 71.397 5.3125C71.0845 4.70644 70.4453 4.40341 69.4794 4.40341C68.5135 4.40341 67.7133 4.71117 67.0788 5.3267C66.4491 5.9375 66.0561 6.71875 65.8999 7.67045L64.6783 15H64.2237L65.4453 7.67045C65.6016 6.70455 65.5211 5.91856 65.2038 5.3125C64.8913 4.70644 64.2521 4.40341 63.2862 4.40341C62.6423 4.40341 62.0694 4.54309 61.5675 4.82244C61.0703 5.1018 60.6607 5.48769 60.3388 5.98011C60.0215 6.47254 59.8108 7.03598 59.7067 7.67045L58.4851 15H58.0305ZM77.4286 15.2273C76.832 15.2273 76.3017 15.1042 75.8377 14.858C75.3784 14.6117 75.0328 14.2519 74.8008 13.7784C74.5735 13.3049 74.512 12.7273 74.6161 12.0455C74.6824 11.6761 74.8008 11.3305 74.9712 11.0085C75.1464 10.6818 75.4045 10.3859 75.7454 10.1207C76.091 9.85559 76.5479 9.62831 77.1161 9.43892C77.6843 9.24953 78.3945 9.10511 79.2468 9.00568C79.7582 8.94886 80.2435 8.88258 80.7028 8.80682C81.1621 8.73106 81.5432 8.61742 81.8462 8.46591C82.1493 8.31439 82.3245 8.09659 82.3718 7.8125L82.4854 7.15909C82.6275 6.32102 82.4712 5.64867 82.0167 5.14205C81.5621 4.63068 80.8661 4.375 79.9286 4.375C79.1616 4.375 78.449 4.54782 77.7908 4.89347C77.1374 5.23911 76.6474 5.71023 76.3207 6.30682L75.9229 6.13636C76.1692 5.68182 76.4959 5.28883 76.9031 4.95739C77.315 4.62595 77.779 4.37027 78.2951 4.19034C78.8159 4.01042 79.3604 3.92045 79.9286 3.92045C80.4826 3.92045 80.9656 4.00331 81.3775 4.16903C81.7894 4.33002 82.1232 4.55729 82.3789 4.85085C82.6393 5.13968 82.8169 5.48059 82.9116 5.87358C83.011 6.26657 83.0205 6.69508 82.94 7.15909L81.6332 15H81.1786L81.5479 12.7841H81.4911C81.1881 13.2765 80.8235 13.7074 80.3974 14.0767C79.976 14.4413 79.512 14.7254 79.0053 14.929C78.5034 15.1278 77.9779 15.2273 77.4286 15.2273ZM77.4286 14.7727C78.1199 14.7727 78.7828 14.5881 79.4173 14.2188C80.0565 13.8447 80.601 13.3262 81.0508 12.6634C81.5053 11.9957 81.8036 11.2216 81.9457 10.3409L82.2298 8.69318C82.083 8.79261 81.9078 8.88021 81.7042 8.95597C81.5053 9.03172 81.2828 9.10038 81.0366 9.16193C80.7951 9.21875 80.5323 9.26847 80.2482 9.31108C79.9689 9.35369 79.6729 9.39394 79.3604 9.43182C78.3661 9.54545 77.5707 9.71828 76.9741 9.95028C76.3775 10.1823 75.9324 10.4735 75.6388 10.8239C75.3453 11.1742 75.1559 11.5814 75.0707 12.0455C74.9428 12.8693 75.1014 13.5298 75.5465 14.027C75.9916 14.5241 76.619 14.7727 77.4286 14.7727ZM93.5046 6.39205L93.0501 6.47727C92.9743 6.00379 92.8323 5.61316 92.6239 5.3054C92.4156 4.9929 92.1386 4.76089 91.793 4.60938C91.4521 4.45312 91.0378 4.375 90.5501 4.375C89.6599 4.375 88.9047 4.60464 88.2844 5.06392C87.6642 5.5232 87.2925 6.11742 87.1694 6.84659C87.0794 7.41004 87.1812 7.87879 87.4748 8.25284C87.7731 8.62689 88.2773 8.90625 88.9876 9.09091L90.6353 9.51705C91.4023 9.71591 91.9516 10.0616 92.283 10.554C92.6192 11.0417 92.7328 11.6241 92.6239 12.3011C92.5292 12.893 92.2925 13.4091 91.9137 13.8494C91.5349 14.285 91.0543 14.6236 90.4719 14.8651C89.8943 15.1065 89.248 15.2273 88.533 15.2273C87.5576 15.2273 86.7977 14.9882 86.2532 14.5099C85.7134 14.0317 85.4222 13.3523 85.3796 12.4716L85.8342 12.4148C85.8626 13.1818 86.1064 13.7666 86.5657 14.169C87.025 14.5715 87.6808 14.7727 88.533 14.7727C89.4989 14.7727 90.3204 14.5336 90.9975 14.0554C91.6746 13.5724 92.0747 12.9498 92.1978 12.1875C92.2878 11.6288 92.1883 11.1624 91.8995 10.7884C91.6107 10.4143 91.1325 10.142 90.4648 9.97159L88.8455 9.54545C88.0359 9.33239 87.4487 8.98201 87.0842 8.49432C86.7243 8.00663 86.6012 7.41951 86.7148 6.73295C86.8095 6.16951 87.0321 5.67708 87.3825 5.25568C87.7328 4.83428 88.1779 4.50758 88.7177 4.27557C89.2622 4.03883 89.8635 3.92045 90.5217 3.92045C91.3787 3.92045 92.0581 4.13115 92.56 4.55256C93.0619 4.96922 93.3768 5.58239 93.5046 6.39205ZM100.371 19.0909L102.871 4.09091H103.325L102.871 6.875H102.928C103.221 6.26894 103.579 5.74574 104 5.3054C104.426 4.86032 104.902 4.51941 105.428 4.28267C105.958 4.04119 106.517 3.92045 107.104 3.92045C107.965 3.92045 108.669 4.16667 109.213 4.65909C109.762 5.15151 110.136 5.82386 110.335 6.67614C110.539 7.52841 110.551 8.49432 110.371 9.57386C110.191 10.6439 109.855 11.6051 109.362 12.4574C108.875 13.3097 108.276 13.9844 107.565 14.4815C106.86 14.9787 106.081 15.2273 105.229 15.2273C104.651 15.2273 104.137 15.1089 103.688 14.8722C103.238 14.6307 102.871 14.2898 102.587 13.8494C102.303 13.4044 102.113 12.8788 102.018 12.2727H101.962L100.825 19.0909H100.371ZM102.416 9.57386C102.255 10.5587 102.255 11.4441 102.416 12.2301C102.577 13.0114 102.894 13.6316 103.368 14.0909C103.841 14.5455 104.462 14.7727 105.229 14.7727C105.996 14.7727 106.704 14.5455 107.352 14.0909C108.001 13.6316 108.55 13.0114 109 12.2301C109.45 11.4441 109.755 10.5587 109.916 9.57386C110.077 8.58902 110.077 7.70597 109.916 6.92472C109.755 6.13873 109.44 5.51847 108.972 5.06392C108.503 4.60464 107.88 4.375 107.104 4.375C106.337 4.375 105.626 4.60464 104.973 5.06392C104.32 5.51847 103.77 6.13873 103.325 6.92472C102.88 7.70597 102.577 8.58902 102.416 9.57386ZM115.378 15.2273C114.781 15.2273 114.251 15.1042 113.787 14.858C113.328 14.6117 112.982 14.2519 112.75 13.7784C112.523 13.3049 112.461 12.7273 112.565 12.0455C112.632 11.6761 112.75 11.3305 112.92 11.0085C113.096 10.6818 113.354 10.3859 113.695 10.1207C114.04 9.85559 114.497 9.62831 115.065 9.43892C115.634 9.24953 116.344 9.10511 117.196 9.00568C117.707 8.94886 118.193 8.88258 118.652 8.80682C119.111 8.73106 119.492 8.61742 119.795 8.46591C120.098 8.31439 120.274 8.09659 120.321 7.8125L120.435 7.15909C120.577 6.32102 120.42 5.64867 119.966 5.14205C119.511 4.63068 118.815 4.375 117.878 4.375C117.111 4.375 116.398 4.54782 115.74 4.89347C115.087 5.23911 114.597 5.71023 114.27 6.30682L113.872 6.13636C114.118 5.68182 114.445 5.28883 114.852 4.95739C115.264 4.62595 115.728 4.37027 116.244 4.19034C116.765 4.01042 117.31 3.92045 117.878 3.92045C118.432 3.92045 118.915 4.00331 119.327 4.16903C119.739 4.33002 120.072 4.55729 120.328 4.85085C120.589 5.13968 120.766 5.48059 120.861 5.87358C120.96 6.26657 120.97 6.69508 120.889 7.15909L119.582 15H119.128L119.497 12.7841H119.44C119.137 13.2765 118.773 13.7074 118.347 14.0767C117.925 14.4413 117.461 14.7254 116.955 14.929C116.453 15.1278 115.927 15.2273 115.378 15.2273ZM115.378 14.7727C116.069 14.7727 116.732 14.5881 117.366 14.2188C118.006 13.8447 118.55 13.3262 119 12.6634C119.455 11.9957 119.753 11.2216 119.895 10.3409L120.179 8.69318C120.032 8.79261 119.857 8.88021 119.653 8.95597C119.455 9.03172 119.232 9.10038 118.986 9.16193C118.744 9.21875 118.482 9.26847 118.197 9.31108C117.918 9.35369 117.622 9.39394 117.31 9.43182C116.315 9.54545 115.52 9.71828 114.923 9.95028C114.327 10.1823 113.882 10.4735 113.588 10.8239C113.295 11.1742 113.105 11.5814 113.02 12.0455C112.892 12.8693 113.051 13.5298 113.496 14.027C113.941 14.5241 114.568 14.7727 115.378 14.7727ZM123.499 15L125.317 4.09091H125.772L125.488 5.82386H125.545C125.886 5.25568 126.378 4.80114 127.022 4.46023C127.671 4.11932 128.371 3.94886 129.124 3.94886C129.181 3.94886 129.219 3.94886 129.238 3.94886C129.257 3.94886 129.295 3.94886 129.352 3.94886L129.266 4.40341C129.21 4.40341 129.172 4.40341 129.153 4.40341C129.134 4.40341 129.096 4.40341 129.039 4.40341C128.395 4.40341 127.799 4.54309 127.249 4.82244C126.705 5.1018 126.248 5.48769 125.879 5.98011C125.514 6.47254 125.28 7.03598 125.175 7.67045L123.954 15H123.499ZM132.702 15.2273C132.105 15.2273 131.575 15.1042 131.111 14.858C130.652 14.6117 130.306 14.2519 130.074 13.7784C129.847 13.3049 129.785 12.7273 129.89 12.0455C129.956 11.6761 130.074 11.3305 130.245 11.0085C130.42 10.6818 130.678 10.3859 131.019 10.1207C131.364 9.85559 131.821 9.62831 132.39 9.43892C132.958 9.24953 133.668 9.10511 134.52 9.00568C135.032 8.94886 135.517 8.88258 135.976 8.80682C136.435 8.73106 136.817 8.61742 137.12 8.46591C137.423 8.31439 137.598 8.09659 137.645 7.8125L137.759 7.15909C137.901 6.32102 137.745 5.64867 137.29 5.14205C136.836 4.63068 136.14 4.375 135.202 4.375C134.435 4.375 133.722 4.54782 133.064 4.89347C132.411 5.23911 131.921 5.71023 131.594 6.30682L131.196 6.13636C131.443 5.68182 131.769 5.28883 132.176 4.95739C132.588 4.62595 133.052 4.37027 133.569 4.19034C134.089 4.01042 134.634 3.92045 135.202 3.92045C135.756 3.92045 136.239 4.00331 136.651 4.16903C137.063 4.33002 137.397 4.55729 137.652 4.85085C137.913 5.13968 138.09 5.48059 138.185 5.87358C138.284 6.26657 138.294 6.69508 138.213 7.15909L136.907 15H136.452L136.821 12.7841H136.765C136.462 13.2765 136.097 13.7074 135.671 14.0767C135.249 14.4413 134.785 14.7254 134.279 14.929C133.777 15.1278 133.251 15.2273 132.702 15.2273ZM132.702 14.7727C133.393 14.7727 134.056 14.5881 134.691 14.2188C135.33 13.8447 135.874 13.3262 136.324 12.6634C136.779 11.9957 137.077 11.2216 137.219 10.3409L137.503 8.69318C137.356 8.79261 137.181 8.88021 136.978 8.95597C136.779 9.03172 136.556 9.10038 136.31 9.16193C136.069 9.21875 135.806 9.26847 135.522 9.31108C135.242 9.35369 134.946 9.39394 134.634 9.43182C133.64 9.54545 132.844 9.71828 132.248 9.95028C131.651 10.1823 131.206 10.4735 130.912 10.8239C130.619 11.1742 130.429 11.5814 130.344 12.0455C130.216 12.8693 130.375 13.5298 130.82 14.027C131.265 14.5241 131.892 14.7727 132.702 14.7727ZM150.511 15.2273C149.555 15.2273 148.761 14.9787 148.132 14.4815C147.502 13.9844 147.062 13.3097 146.811 12.4574C146.56 11.6051 146.524 10.6439 146.704 9.57386C146.884 8.50379 147.242 7.54261 147.777 6.69034C148.312 5.83807 148.96 5.16335 149.723 4.66619C150.485 4.16903 151.297 3.92045 152.159 3.92045C152.793 3.92045 153.357 4.05776 153.849 4.33239C154.346 4.60227 154.756 4.97633 155.078 5.45455C155.404 5.92803 155.629 6.47727 155.752 7.10227C155.876 7.72254 155.88 8.38542 155.767 9.09091L155.681 9.54545H146.931L147.017 9.09091H155.312C155.454 8.2197 155.409 7.42898 155.177 6.71875C154.95 6.00379 154.574 5.43561 154.048 5.0142C153.527 4.58807 152.897 4.375 152.159 4.375C151.411 4.375 150.691 4.59754 150 5.04261C149.308 5.48769 148.712 6.09375 148.21 6.8608C147.708 7.62784 147.367 8.49432 147.187 9.46023L147.159 9.48864C146.998 10.4451 147.014 11.3234 147.208 12.1236C147.403 12.9238 147.777 13.5653 148.331 14.0483C148.885 14.5312 149.621 14.7727 150.539 14.7727C151.202 14.7727 151.785 14.6544 152.287 14.4176C152.793 14.1809 153.215 13.9086 153.551 13.6009C153.892 13.2931 154.147 13.0303 154.318 12.8125L154.63 13.0682C154.431 13.3428 154.145 13.6482 153.771 13.9844C153.397 14.3205 152.938 14.6117 152.393 14.858C151.849 15.1042 151.221 15.2273 150.511 15.2273ZM159.668 7.67045L158.446 15H157.991L159.81 4.09091H160.264L159.98 5.82386H160.037C160.378 5.25568 160.87 4.80114 161.514 4.46023C162.163 4.11932 162.864 3.94886 163.616 3.94886C164.346 3.94886 164.964 4.10748 165.47 4.42472C165.977 4.74195 166.341 5.17992 166.564 5.73864C166.786 6.29735 166.836 6.94129 166.713 7.67045L165.491 15H165.037L166.259 7.67045C166.415 6.70455 166.249 5.91856 165.761 5.3125C165.278 4.70644 164.554 4.40341 163.588 4.40341C162.944 4.40341 162.343 4.54309 161.784 4.82244C161.23 5.1018 160.764 5.48769 160.385 5.98011C160.011 6.47254 159.772 7.03598 159.668 7.67045ZM174.586 4.09091L174.501 4.54545H170.183L170.268 4.09091H174.586ZM172.285 1.47727H172.739L170.893 12.6989C170.817 13.125 170.848 13.492 170.985 13.7997C171.122 14.1027 171.333 14.3371 171.617 14.5028C171.901 14.6638 172.228 14.7443 172.597 14.7443C172.725 14.7443 172.848 14.7325 172.967 14.7088C173.09 14.6804 173.222 14.6449 173.364 14.6023L173.421 15.0284C173.265 15.0852 173.116 15.1278 172.974 15.1562C172.836 15.1847 172.683 15.1989 172.512 15.1989C172.067 15.1989 171.672 15.0971 171.326 14.8935C170.985 14.6899 170.729 14.401 170.559 14.027C170.393 13.6529 170.353 13.2102 170.438 12.6989L172.285 1.47727ZM176.312 15L178.13 4.09091H178.585L178.3 5.82386H178.357C178.698 5.25568 179.191 4.80114 179.835 4.46023C180.483 4.11932 181.184 3.94886 181.937 3.94886C181.994 3.94886 182.031 3.94886 182.05 3.94886C182.069 3.94886 182.107 3.94886 182.164 3.94886L182.079 4.40341C182.022 4.40341 181.984 4.40341 181.965 4.40341C181.946 4.40341 181.908 4.40341 181.852 4.40341C181.208 4.40341 180.611 4.54309 180.062 4.82244C179.517 5.1018 179.06 5.48769 178.691 5.98011C178.326 6.47254 178.092 7.03598 177.988 7.67045L176.766 15H176.312ZM185.515 15.2273C184.918 15.2273 184.388 15.1042 183.924 14.858C183.464 14.6117 183.119 14.2519 182.887 13.7784C182.659 13.3049 182.598 12.7273 182.702 12.0455C182.768 11.6761 182.887 11.3305 183.057 11.0085C183.232 10.6818 183.49 10.3859 183.831 10.1207C184.177 9.85559 184.634 9.62831 185.202 9.43892C185.77 9.24953 186.48 9.10511 187.333 9.00568C187.844 8.94886 188.329 8.88258 188.789 8.80682C189.248 8.73106 189.629 8.61742 189.932 8.46591C190.235 8.31439 190.41 8.09659 190.458 7.8125L190.571 7.15909C190.713 6.32102 190.557 5.64867 190.103 5.14205C189.648 4.63068 188.952 4.375 188.015 4.375C187.248 4.375 186.535 4.54782 185.877 4.89347C185.223 5.23911 184.733 5.71023 184.407 6.30682L184.009 6.13636C184.255 5.68182 184.582 5.28883 184.989 4.95739C185.401 4.62595 185.865 4.37027 186.381 4.19034C186.902 4.01042 187.446 3.92045 188.015 3.92045C188.569 3.92045 189.051 4.00331 189.463 4.16903C189.875 4.33002 190.209 4.55729 190.465 4.85085C190.725 5.13968 190.903 5.48059 190.998 5.87358C191.097 6.26657 191.106 6.69508 191.026 7.15909L189.719 15H189.265L189.634 12.7841H189.577C189.274 13.2765 188.909 13.7074 188.483 14.0767C188.062 14.4413 187.598 14.7254 187.091 14.929C186.589 15.1278 186.064 15.2273 185.515 15.2273ZM185.515 14.7727C186.206 14.7727 186.869 14.5881 187.503 14.2188C188.142 13.8447 188.687 13.3262 189.137 12.6634C189.591 11.9957 189.89 11.2216 190.032 10.3409L190.316 8.69318C190.169 8.79261 189.994 8.88021 189.79 8.95597C189.591 9.03172 189.369 9.10038 189.123 9.16193C188.881 9.21875 188.618 9.26847 188.334 9.31108C188.055 9.35369 187.759 9.39394 187.446 9.43182C186.452 9.54545 185.657 9.71828 185.06 9.95028C184.463 10.1823 184.018 10.4735 183.725 10.8239C183.431 11.1742 183.242 11.5814 183.157 12.0455C183.029 12.8693 183.187 13.5298 183.632 14.027C184.078 14.5241 184.705 14.7727 185.515 14.7727ZM193.636 15L195.454 4.09091H195.909L195.625 5.82386H195.681C196.022 5.25568 196.515 4.80114 197.159 4.46023C197.807 4.11932 198.508 3.94886 199.261 3.94886C199.318 3.94886 199.356 3.94886 199.375 3.94886C199.394 3.94886 199.431 3.94886 199.488 3.94886L199.403 4.40341C199.346 4.40341 199.308 4.40341 199.289 4.40341C199.27 4.40341 199.233 4.40341 199.176 4.40341C198.532 4.40341 197.935 4.54309 197.386 4.82244C196.842 5.1018 196.385 5.48769 196.015 5.98011C195.651 6.47254 195.416 7.03598 195.312 7.67045L194.091 15H193.636ZM203.094 10.6818L203.265 9.6875C203.341 9.23769 203.464 8.83996 203.634 8.49432C203.809 8.14867 204.058 7.82434 204.38 7.52131C204.707 7.21354 205.13 6.89394 205.651 6.5625C206.167 6.23106 206.591 5.93987 206.923 5.68892C207.259 5.43324 207.519 5.16098 207.704 4.87216C207.888 4.58333 208.009 4.22822 208.066 3.80682C208.151 3.19602 208.094 2.65862 207.896 2.1946C207.701 1.72585 207.391 1.36127 206.965 1.10085C206.539 0.840435 206.025 0.710226 205.424 0.710226C204.761 0.710226 204.143 0.866476 203.57 1.17898C203.002 1.48674 202.526 1.89867 202.143 2.41477C201.764 2.92614 201.522 3.48485 201.418 4.09091H200.964C201.087 3.35701 201.362 2.70123 201.788 2.12358C202.219 1.54593 202.749 1.09138 203.379 0.759943C204.013 0.423768 204.695 0.255681 205.424 0.255681C206.129 0.255681 206.731 0.416666 207.228 0.738636C207.725 1.05587 208.087 1.48438 208.315 2.02415C208.547 2.55919 208.615 3.15341 208.521 3.80682C208.45 4.30871 208.317 4.72538 208.123 5.05682C207.929 5.38352 207.649 5.68892 207.285 5.97301C206.925 6.2571 206.456 6.58617 205.879 6.96023C205.381 7.27746 204.986 7.56866 204.692 7.83381C204.404 8.09896 204.186 8.37595 204.039 8.66477C203.892 8.9536 203.786 9.29451 203.719 9.6875L203.549 10.6818H203.094ZM202.64 15.0852C202.498 15.0852 202.382 15.0355 202.292 14.9361C202.207 14.8366 202.171 14.7159 202.185 14.5739C202.2 14.4318 202.261 14.3111 202.37 14.2116C202.484 14.1122 202.612 14.0625 202.754 14.0625C202.896 14.0625 203.009 14.1122 203.094 14.2116C203.184 14.3111 203.222 14.4318 203.208 14.5739C203.199 14.6686 203.165 14.7562 203.109 14.8366C203.057 14.9124 202.988 14.9716 202.903 15.0142C202.822 15.0616 202.735 15.0852 202.64 15.0852Z" fill="white"/>
</svg>
