<svg width="89" height="25" viewBox="0 0 89 25" fill="none" xmlns="http://www.w3.org/2000/svg">
<path d="M16.5455 6.54545C16.6894 4.95454 16.2992 3.64773 15.375 2.625C14.4508 1.60227 13.0833 1.09091 11.2727 1.09091C10.0909 1.09091 8.99242 1.32197 7.97727 1.78409C6.9697 2.23864 6.12879 2.86364 5.45455 3.65909C4.7803 4.44697 4.35606 5.34848 4.18182 6.36364C4.08333 6.95455 4.09091 7.5 4.20455 8C4.32576 8.49242 4.55303 8.94697 4.88636 9.36364C5.22727 9.77273 5.67803 10.1439 6.23864 10.4773C6.80682 10.8106 7.48485 11.1061 8.27273 11.3636L10.7727 12.1818C11.7273 12.4924 12.5417 12.8409 13.2159 13.2273C13.8977 13.6136 14.4394 14.0455 14.8409 14.5227C15.2424 15 15.5114 15.5341 15.6477 16.125C15.7917 16.7159 15.803 17.3712 15.6818 18.0909C15.4773 19.3409 14.9962 20.4394 14.2386 21.3864C13.4811 22.3258 12.5038 23.0568 11.3068 23.5795C10.1174 24.1023 8.75758 24.3636 7.22727 24.3636C5.81818 24.3636 4.62121 24.1174 3.63636 23.625C2.65152 23.125 1.92045 22.4394 1.44318 21.5682C0.973485 20.6894 0.795455 19.6818 0.909091 18.5455H1.63636C1.54545 19.5455 1.71212 20.428 2.13636 21.1932C2.56818 21.9583 3.22727 22.5568 4.11364 22.9886C5 23.4205 6.08333 23.6364 7.36364 23.6364C8.70455 23.6364 9.91288 23.4015 10.9886 22.9318C12.0644 22.4621 12.947 21.8106 13.6364 20.9773C14.3333 20.1439 14.7727 19.1818 14.9545 18.0909C15.0909 17.2576 15.0265 16.5189 14.7614 15.875C14.5038 15.2311 14.0265 14.6629 13.3295 14.1705C12.6326 13.678 11.6894 13.2424 10.5 12.8636L7.95455 12.0455C6.2197 11.4848 4.98106 10.7348 4.23864 9.79545C3.49621 8.84848 3.23485 7.70455 3.45455 6.36364C3.65152 5.18939 4.11742 4.15151 4.85227 3.25C5.5947 2.34848 6.5303 1.64394 7.65909 1.13636C8.78788 0.621211 10.0227 0.363636 11.3636 0.363636C12.697 0.363636 13.8258 0.628787 14.75 1.15909C15.6742 1.68939 16.3561 2.42045 16.7955 3.35227C17.2348 4.28409 17.3939 5.34848 17.2727 6.54545H16.5455ZM26.7301 24.3636C25.1998 24.3636 23.9309 23.9659 22.9233 23.1705C21.9157 22.375 21.2112 21.2955 20.8097 19.9318C20.4081 18.5682 20.3513 17.0303 20.6392 15.3182C20.9271 13.6061 21.4991 12.0682 22.3551 10.7045C23.2112 9.34091 24.2491 8.26136 25.4688 7.46591C26.6884 6.67045 27.9877 6.27273 29.3665 6.27273C30.3816 6.27273 31.2831 6.49242 32.071 6.93182C32.8665 7.36364 33.5218 7.96212 34.0369 8.72727C34.5597 9.48485 34.9195 10.3636 35.1165 11.3636C35.3134 12.3561 35.321 13.4167 35.1392 14.5455L35.0028 15.2727H21.0028L21.1392 14.5455H34.4119C34.6392 13.1515 34.5672 11.8864 34.196 10.75C33.8324 9.60606 33.2301 8.69697 32.3892 8.02273C31.5559 7.34091 30.5483 7 29.3665 7C28.1695 7 27.018 7.35606 25.9119 8.06818C24.8059 8.7803 23.8513 9.75 23.0483 10.9773C22.2453 12.2045 21.6998 13.5909 21.4119 15.1364L21.3665 15.1818C21.1089 16.7121 21.1354 18.1174 21.446 19.3977C21.7566 20.678 22.3551 21.7045 23.2415 22.4773C24.1278 23.25 25.3059 23.6364 26.7756 23.6364C27.8362 23.6364 28.768 23.447 29.571 23.0682C30.3816 22.6894 31.0559 22.2538 31.5938 21.7614C32.1392 21.2689 32.5483 20.8485 32.821 20.5L33.321 20.9091C33.0028 21.3485 32.5445 21.8371 31.946 22.375C31.3475 22.9129 30.6127 23.3788 29.7415 23.7727C28.8703 24.1667 27.8665 24.3636 26.7301 24.3636ZM41.3807 12.2727L39.4261 24H38.6989L41.608 6.54545H42.3352L41.8807 9.31818H41.9716C42.517 8.40909 43.3049 7.68182 44.3352 7.13636C45.3731 6.59091 46.4943 6.31818 47.6989 6.31818C48.8655 6.31818 49.8542 6.57197 50.6648 7.07954C51.4754 7.58712 52.0587 8.28788 52.4148 9.18182C52.7708 10.0758 52.8504 11.1061 52.6534 12.2727L50.6989 24H49.9716L51.9261 12.2727C52.1761 10.7273 51.911 9.4697 51.1307 8.5C50.358 7.5303 49.1989 7.04545 47.6534 7.04545C46.6231 7.04545 45.661 7.26894 44.767 7.71591C43.8807 8.16288 43.1345 8.7803 42.5284 9.56818C41.9299 10.3561 41.5473 11.2576 41.3807 12.2727ZM59.5682 12.2727L57.6136 24H56.8864L60.75 0.727272H61.4773L60.0682 9.31818H60.1591C60.7045 8.40909 61.4924 7.68182 62.5227 7.13636C63.5606 6.59091 64.6818 6.31818 65.8864 6.31818C67.053 6.31818 68.0417 6.57197 68.8523 7.07954C69.6629 7.58712 70.2462 8.28788 70.6023 9.18182C70.9583 10.0758 71.0379 11.1061 70.8409 12.2727L68.8864 24H68.1591L70.1136 12.2727C70.3636 10.7273 70.0985 9.4697 69.3182 8.5C68.5455 7.5303 67.3864 7.04545 65.8409 7.04545C64.8106 7.04545 63.8485 7.26894 62.9545 7.71591C62.0682 8.16288 61.322 8.7803 60.7159 9.56818C60.1174 10.3561 59.7348 11.2576 59.5682 12.2727ZM79.392 24.3636C78.4375 24.3636 77.589 24.1667 76.8466 23.7727C76.1117 23.3788 75.5587 22.803 75.1875 22.0455C74.8239 21.2879 74.7254 20.3636 74.892 19.2727C74.9981 18.6818 75.1875 18.1288 75.4602 17.6136C75.7405 17.0909 76.1534 16.6174 76.6989 16.1932C77.2519 15.7689 77.983 15.4053 78.892 15.1023C79.8011 14.7992 80.9375 14.5682 82.3011 14.4091C83.1193 14.3182 83.8958 14.2121 84.6307 14.0909C85.3655 13.9697 85.9754 13.7879 86.4602 13.5455C86.9451 13.303 87.2254 12.9545 87.3011 12.5L87.483 11.4545C87.7102 10.1136 87.4602 9.03788 86.733 8.22727C86.0057 7.40909 84.892 7 83.392 7C82.1648 7 81.0246 7.27651 79.9716 7.82954C78.9261 8.38257 78.142 9.13636 77.6193 10.0909L76.983 9.81818C77.3769 9.09091 77.8996 8.46212 78.5511 7.93182C79.2102 7.40152 79.9527 6.99242 80.7784 6.70454C81.6117 6.41667 82.483 6.27273 83.392 6.27273C84.2784 6.27273 85.0511 6.4053 85.7102 6.67045C86.3693 6.92803 86.9034 7.29167 87.3125 7.76136C87.7292 8.22348 88.0133 8.76894 88.1648 9.39773C88.3239 10.0265 88.339 10.7121 88.2102 11.4545L86.1193 24H85.392L85.983 20.4545H85.892C85.4072 21.2424 84.8239 21.9318 84.142 22.5227C83.4678 23.1061 82.7254 23.5606 81.9148 23.8864C81.1117 24.2045 80.2708 24.3636 79.392 24.3636ZM79.392 23.6364C80.4981 23.6364 81.5587 23.3409 82.5739 22.75C83.5966 22.1515 84.4678 21.322 85.1875 20.2614C85.9148 19.1932 86.392 17.9545 86.6193 16.5455L87.0739 13.9091C86.839 14.0682 86.5587 14.2083 86.233 14.3295C85.9148 14.4508 85.5587 14.5606 85.1648 14.6591C84.7784 14.75 84.358 14.8295 83.9034 14.8977C83.4564 14.9659 82.983 15.0303 82.483 15.0909C80.892 15.2727 79.6193 15.5492 78.6648 15.9205C77.7102 16.2917 76.9981 16.7576 76.5284 17.3182C76.0587 17.8788 75.7557 18.5303 75.6193 19.2727C75.4148 20.5909 75.6686 21.6477 76.3807 22.4432C77.0928 23.2386 78.0966 23.6364 79.392 23.6364Z" fill="white"/>
</svg>
