<svg width="107" height="26" viewBox="0 0 107 26" fill="none" xmlns="http://www.w3.org/2000/svg">
<path d="M19.0455 1.72727H19.7727L17.2273 17.1364C16.9697 18.7121 16.375 20.1212 15.4432 21.3636C14.5114 22.5985 13.3561 23.5758 11.9773 24.2955C10.5985 25.0076 9.10606 25.3636 7.5 25.3636C5.92424 25.3636 4.56439 25.0038 3.42045 24.2841C2.27652 23.5644 1.43939 22.5871 0.909091 21.3523C0.378788 20.1098 0.242424 18.7045 0.5 17.1364L3.04545 1.72727H3.77273L1.22727 17.1364C0.992424 18.5758 1.10227 19.8598 1.55682 20.9886C2.01136 22.1174 2.75 23.0076 3.77273 23.6591C4.79545 24.3106 6.03788 24.6364 7.5 24.6364C8.96212 24.6364 10.3333 24.3106 11.6136 23.6591C12.8939 23.0076 13.9697 22.1174 14.8409 20.9886C15.7121 19.8598 16.2652 18.5758 16.5 17.1364L19.0455 1.72727ZM35.3636 11.2273L34.6364 11.3636C34.5152 10.6061 34.2879 9.98106 33.9545 9.48864C33.6212 8.98864 33.178 8.61742 32.625 8.375C32.0795 8.125 31.4167 8 30.6364 8C29.2121 8 28.0038 8.36742 27.0114 9.10227C26.0189 9.83712 25.4242 10.7879 25.2273 11.9545C25.0833 12.8561 25.2462 13.6061 25.7159 14.2045C26.1932 14.803 27 15.25 28.1364 15.5455L30.7727 16.2273C32 16.5455 32.8788 17.0985 33.4091 17.8864C33.947 18.6667 34.1288 19.5985 33.9545 20.6818C33.803 21.6288 33.4242 22.4545 32.8182 23.1591C32.2121 23.8561 31.4432 24.3977 30.5114 24.7841C29.5871 25.1705 28.553 25.3636 27.4091 25.3636C25.8485 25.3636 24.6326 24.9811 23.7614 24.2159C22.8977 23.4508 22.4318 22.3636 22.3636 20.9545L23.0909 20.8636C23.1364 22.0909 23.5265 23.0265 24.2614 23.6705C24.9962 24.3144 26.0455 24.6364 27.4091 24.6364C28.9545 24.6364 30.2689 24.2538 31.3523 23.4886C32.4356 22.7159 33.0758 21.7197 33.2727 20.5C33.4167 19.6061 33.2576 18.8598 32.7955 18.2614C32.3333 17.6629 31.5682 17.2273 30.5 16.9545L27.9091 16.2727C26.6136 15.9318 25.6742 15.3712 25.0909 14.5909C24.5152 13.8106 24.3182 12.8712 24.5 11.7727C24.6515 10.8712 25.0076 10.0833 25.5682 9.40909C26.1288 8.73485 26.8409 8.21212 27.7045 7.84091C28.5758 7.46212 29.5379 7.27273 30.5909 7.27273C31.9621 7.27273 33.0492 7.60985 33.8523 8.28409C34.6553 8.95076 35.1591 9.93182 35.3636 11.2273ZM50.6449 19.2727L52.5994 7.54545H53.3267L50.4176 25H49.6903L50.1449 22.2273H50.054C49.5085 23.1364 48.7169 23.8636 47.679 24.4091C46.6487 24.9545 45.5313 25.2273 44.3267 25.2273C43.16 25.2273 42.1714 24.9735 41.3608 24.4659C40.5502 23.9583 39.9669 23.2576 39.6108 22.3636C39.2547 21.4697 39.1752 20.4394 39.3722 19.2727L41.3267 7.54545H42.054L40.0994 19.2727C39.8494 20.8182 40.1259 22.0758 40.929 23.0455C41.7396 24.0152 42.9176 24.5 44.4631 24.5C45.4934 24.5 46.4441 24.2765 47.3153 23.8295C48.1941 23.3826 48.9252 22.7652 49.5085 21.9773C50.0994 21.1894 50.4782 20.2879 50.6449 19.2727ZM60.9233 25.3636C59.9688 25.3636 59.1203 25.1667 58.3778 24.7727C57.643 24.3788 57.09 23.803 56.7188 23.0455C56.3551 22.2879 56.2566 21.3636 56.4233 20.2727C56.5294 19.6818 56.7188 19.1288 56.9915 18.6136C57.2718 18.0909 57.6847 17.6174 58.2301 17.1932C58.7831 16.7689 59.5142 16.4053 60.4233 16.1023C61.3324 15.7992 62.4688 15.5682 63.8324 15.4091C64.6506 15.3182 65.4271 15.2121 66.1619 15.0909C66.8968 14.9697 67.5066 14.7879 67.9915 14.5455C68.4763 14.303 68.7566 13.9545 68.8324 13.5L69.0142 12.4545C69.2415 11.1136 68.9915 10.0379 68.2642 9.22727C67.5369 8.40909 66.4233 8 64.9233 8C63.696 8 62.5559 8.27651 61.5028 8.82954C60.4574 9.38257 59.6733 10.1364 59.1506 11.0909L58.5142 10.8182C58.9081 10.0909 59.4309 9.46212 60.0824 8.93182C60.7415 8.40152 61.4839 7.99242 62.3097 7.70454C63.143 7.41667 64.0142 7.27273 64.9233 7.27273C65.8097 7.27273 66.5824 7.4053 67.2415 7.67045C67.9006 7.92803 68.4347 8.29167 68.8438 8.76136C69.2604 9.22348 69.5445 9.76894 69.696 10.3977C69.8551 11.0265 69.8703 11.7121 69.7415 12.4545L67.6506 25H66.9233L67.5142 21.4545H67.4233C66.9384 22.2424 66.3551 22.9318 65.6733 23.5227C64.9991 24.1061 64.2566 24.5606 63.446 24.8864C62.643 25.2045 61.8021 25.3636 60.9233 25.3636ZM60.9233 24.6364C62.0294 24.6364 63.09 24.3409 64.1051 23.75C65.1278 23.1515 65.9991 22.322 66.7188 21.2614C67.446 20.1932 67.9233 18.9545 68.1506 17.5455L68.6051 14.9091C68.3703 15.0682 68.09 15.2083 67.7642 15.3295C67.446 15.4508 67.09 15.5606 66.696 15.6591C66.3097 15.75 65.8892 15.8295 65.4347 15.8977C64.9877 15.9659 64.5142 16.0303 64.0142 16.0909C62.4233 16.2727 61.1506 16.5492 60.196 16.9205C59.2415 17.2917 58.5294 17.7576 58.0597 18.3182C57.59 18.8788 57.2869 19.5303 57.1506 20.2727C56.946 21.5909 57.1998 22.6477 57.9119 23.4432C58.6241 24.2386 59.6278 24.6364 60.9233 24.6364ZM65.0142 5L69.0142 0.0909081H69.9688L65.7869 5H65.0142ZM73.9176 25L76.8267 7.54545H77.554L77.0994 10.3182H77.1903C77.7358 9.40909 78.5237 8.68182 79.554 8.13636C80.5919 7.59091 81.7131 7.31818 82.9176 7.31818C83.0085 7.31818 83.0691 7.31818 83.0994 7.31818C83.1297 7.31818 83.1903 7.31818 83.2812 7.31818L83.1449 8.04545C83.054 8.04545 82.9934 8.04545 82.9631 8.04545C82.9328 8.04545 82.8722 8.04545 82.7812 8.04545C81.7509 8.04545 80.7964 8.26894 79.9176 8.71591C79.0464 9.16288 78.3153 9.7803 77.7244 10.5682C77.1411 11.3561 76.7661 12.2576 76.5994 13.2727L74.6449 25H73.9176ZM84.4148 25L87.3239 7.54545H88.0511L85.142 25H84.4148ZM88.2557 4.36364C88.0284 4.36364 87.8466 4.28409 87.7102 4.125C87.5814 3.96591 87.536 3.77273 87.5739 3.54545C87.6042 3.38636 87.6951 3.24242 87.8466 3.11364C87.9981 2.97727 88.1648 2.90909 88.3466 2.90909C88.5739 2.90909 88.7519 2.98864 88.8807 3.14773C89.017 3.30682 89.0663 3.5 89.0284 3.72727C88.9981 3.89394 88.9072 4.04167 88.7557 4.17045C88.6042 4.29924 88.4375 4.36364 88.2557 4.36364ZM97.5994 25.3636C96.2206 25.3636 95.0464 24.9659 94.0767 24.1705C93.1146 23.375 92.4252 22.2879 92.0085 20.9091C91.5994 19.5303 91.5388 17.9697 91.8267 16.2273C92.1146 14.5303 92.6828 13.0076 93.5312 11.6591C94.3873 10.303 95.4176 9.23485 96.6222 8.45454C97.8343 7.66667 99.1146 7.27273 100.463 7.27273C101.857 7.27273 103.035 7.67424 103.997 8.47727C104.967 9.2803 105.656 10.3712 106.065 11.75C106.482 13.1288 106.554 14.6818 106.281 16.4091C105.993 18.1061 105.421 19.6326 104.565 20.9886C103.709 22.3371 102.675 23.4053 101.463 24.1932C100.251 24.9735 98.9631 25.3636 97.5994 25.3636ZM97.5994 24.6364C98.857 24.6364 100.043 24.2727 101.156 23.5455C102.27 22.8106 103.217 21.8106 103.997 20.5455C104.777 19.2727 105.296 17.8333 105.554 16.2273C105.812 14.6667 105.762 13.2652 105.406 12.0227C105.05 10.7803 104.448 9.79924 103.599 9.07955C102.751 8.35985 101.721 8 100.509 8C99.2661 8 98.0881 8.37121 96.9744 9.11364C95.8608 9.84848 94.91 10.8523 94.1222 12.125C93.3343 13.3902 92.8116 14.8182 92.554 16.4091C92.2813 17.9697 92.3229 19.3712 92.679 20.6136C93.0426 21.8561 93.6487 22.8371 94.4972 23.5568C95.3532 24.2765 96.3873 24.6364 97.5994 24.6364Z" fill="white"/>
</svg>
